<svg width="128" height="85" viewBox="0 0 128 85" fill="none" xmlns="http://www.w3.org/2000/svg">
<path d="M26.1952 0C33.5257 7.33333e-05 40.1507 4.87681 44.9052 12.7338C40.2767 20.3828 37.4216 30.8568 37.4215 42.4109C37.4215 53.9645 40.2768 64.4387 44.9052 72.0881C40.1507 79.9451 33.5257 84.8217 26.1952 84.8217C11.7281 84.8217 0 65.8335 0 42.4109C8.8e-05 18.9881 11.7281 0 26.1952 0ZM63.6167 0C70.9471 7.33333e-05 77.572 4.87681 82.3269 12.7338C77.6981 20.3828 74.8433 30.8568 74.8433 42.4109C74.8433 53.9645 77.6981 64.4387 82.3269 72.0881C77.572 79.9451 70.9473 84.8217 63.6167 84.8217C56.2858 84.8217 49.6598 79.9458 44.9052 72.0881C49.5338 64.4387 52.3896 53.9653 52.3896 42.4109C52.3896 30.8566 49.5339 20.3828 44.9052 12.7338C49.6598 4.87645 56.286 0 63.6167 0ZM101.038 0C115.505 0.000146667 127.233 18.9882 127.233 42.4109C127.233 65.8335 115.505 84.8217 101.038 84.8217C93.7075 84.8217 87.0811 79.9458 82.3269 72.0881C86.955 64.4387 89.8113 53.9653 89.8113 42.4109C89.8113 30.8566 86.9557 20.3829 82.3269 12.7338C87.0811 4.87645 93.7075 0 101.038 0Z" fill="#D9D9D9"/>
</svg>
