<svg width="439" height="80" viewBox="0 0 439 80" fill="none" xmlns="http://www.w3.org/2000/svg">
<path d="M5.015 71V9.8H30.855C35.2183 9.8 39.015 10.5367 42.245 12.01C45.475 13.4833 47.94 15.5517 49.64 18.215C51.3967 20.8783 52.275 23.995 52.275 27.565C52.275 31.0783 51.3967 34.1667 49.64 36.83C47.94 39.4933 45.475 41.5617 42.245 43.035C39.015 44.5083 35.2183 45.245 30.855 45.245H13.685V36.83H30.515C34.085 36.83 36.805 36.0083 38.675 34.365C40.6017 32.7217 41.565 30.455 41.565 27.565C41.565 24.675 40.63 22.465 38.76 20.935C36.89 19.3483 34.1417 18.555 30.515 18.555H16.065V71H5.015ZM40.035 71L12.75 39.72H25.16L55.335 71H40.035ZM61.3932 71V27.65H72.1032V71H61.3932ZM60.8832 20.51V8.695H72.5282V20.51H60.8832ZM83.4733 71V27.65H93.9283V37.85H94.1833V71H83.4733ZM113.903 71V43.63C113.903 40.9667 113.223 38.955 111.863 37.595C110.503 36.235 108.52 35.555 105.913 35.555C103.647 35.555 101.607 36.065 99.7933 37.085C98.0367 38.105 96.6483 39.5217 95.6283 41.335C94.665 43.1483 94.1833 45.245 94.1833 47.625L93.0783 37.255C94.5517 34.0817 96.705 31.56 99.5383 29.69C102.372 27.7633 105.772 26.8 109.738 26.8C114.442 26.8 118.097 28.1317 120.703 30.795C123.367 33.4583 124.698 37 124.698 41.42V71H113.903ZM166.459 71V61.225L167.309 61.395C166.573 64.5683 164.788 67.1183 161.954 69.045C159.121 70.915 155.749 71.85 151.839 71.85C147.873 71.85 144.416 70.9433 141.469 69.13C138.579 67.26 136.341 64.6533 134.754 61.31C133.168 57.9667 132.374 54.0283 132.374 49.495C132.374 44.905 133.196 40.91 134.839 37.51C136.483 34.11 138.778 31.475 141.724 29.605C144.728 27.735 148.213 26.8 152.179 26.8C156.259 26.8 159.631 27.7917 162.294 29.775C164.958 31.7017 166.601 34.3933 167.224 37.85L166.119 37.935V9.8H176.914V71H166.459ZM154.984 63.095C158.441 63.095 161.189 61.905 163.229 59.525C165.326 57.0883 166.374 53.6883 166.374 49.325C166.374 44.9617 165.326 41.59 163.229 39.21C161.133 36.83 158.356 35.64 154.899 35.64C151.499 35.64 148.751 36.8583 146.654 39.295C144.558 41.675 143.509 45.0467 143.509 49.41C143.509 53.7733 144.558 57.145 146.654 59.525C148.751 61.905 151.528 63.095 154.984 63.095ZM207.777 71.85C203.187 71.85 199.164 70.8867 195.707 68.96C192.307 67.0333 189.644 64.37 187.717 60.97C185.847 57.57 184.912 53.66 184.912 49.24C184.912 44.82 185.847 40.9383 187.717 37.595C189.644 34.195 192.307 31.56 195.707 29.69C199.107 27.7633 203.074 26.8 207.607 26.8C211.914 26.8 215.654 27.7067 218.827 29.52C222.001 31.2767 224.466 33.77 226.222 37C227.979 40.23 228.857 43.9983 228.857 48.305C228.857 49.0983 228.829 49.835 228.772 50.515C228.716 51.195 228.631 51.875 228.517 52.555H191.542V45.075H220.272L218.062 47.115C218.062 43.035 217.127 39.975 215.257 37.935C213.387 35.895 210.781 34.875 207.437 34.875C203.811 34.875 200.921 36.1217 198.767 38.615C196.671 41.1083 195.622 44.7067 195.622 49.41C195.622 54.0567 196.671 57.6267 198.767 60.12C200.921 62.5567 203.952 63.775 207.862 63.775C210.129 63.775 212.112 63.35 213.812 62.5C215.512 61.65 216.759 60.3467 217.552 58.59H227.667C226.251 62.67 223.842 65.9 220.442 68.28C217.099 70.66 212.877 71.85 207.777 71.85ZM264.163 71.85C259.799 71.85 255.776 71.085 252.093 69.555C248.466 67.9683 245.293 65.7583 242.573 62.925C239.853 60.0917 237.756 56.7483 236.283 52.895C234.809 49.0417 234.073 44.82 234.073 40.23C234.073 35.64 234.809 31.4467 236.283 27.65C237.756 23.8533 239.824 20.5667 242.488 17.79C245.208 14.9567 248.381 12.775 252.008 11.245C255.691 9.715 259.743 8.95 264.163 8.95C269.036 8.95 273.428 9.91333 277.338 11.84C281.248 13.7667 284.449 16.4867 286.943 20C289.493 23.4567 291.051 27.5367 291.618 32.24H280.738C280.058 27.65 278.216 24.1367 275.213 21.7C272.209 19.2067 268.554 17.96 264.248 17.96C260.451 17.96 257.136 18.8667 254.303 20.68C251.469 22.4933 249.259 25.0717 247.673 28.415C246.086 31.7017 245.293 35.6117 245.293 40.145C245.293 44.7917 246.086 48.815 247.673 52.215C249.259 55.5583 251.498 58.165 254.388 60.035C257.278 61.905 260.593 62.84 264.333 62.84C268.526 62.84 272.124 61.6217 275.128 59.185C278.131 56.6917 280.029 53.1783 280.823 48.645H291.788C291.108 53.2917 289.493 57.3717 286.943 60.885C284.449 64.3983 281.248 67.1183 277.338 69.045C273.428 70.915 269.036 71.85 264.163 71.85ZM300.124 71V9.8H310.834V71H300.124ZM330.554 71V43.63C330.554 40.9667 329.874 38.955 328.514 37.595C327.154 36.235 325.17 35.555 322.564 35.555C320.297 35.555 318.257 36.065 316.444 37.085C314.687 38.105 313.299 39.5217 312.279 41.335C311.315 43.1483 310.834 45.245 310.834 47.625L309.729 37.255C311.202 34.0817 313.355 31.56 316.189 29.69C319.022 27.7633 322.422 26.8 326.389 26.8C331.092 26.8 334.747 28.1317 337.354 30.795C340.017 33.4583 341.349 37 341.349 41.42V71H330.554ZM351.838 71V27.65H362.548V71H351.838ZM351.328 20.51V8.695H362.973V20.51H351.328ZM373.918 71V9.8H384.628V71H373.918ZM415.463 71.85C410.873 71.85 406.849 70.8867 403.393 68.96C399.993 67.0333 397.329 64.37 395.403 60.97C393.533 57.57 392.598 53.66 392.598 49.24C392.598 44.82 393.533 40.9383 395.403 37.595C397.329 34.195 399.993 31.56 403.393 29.69C406.793 27.7633 410.759 26.8 415.293 26.8C419.599 26.8 423.339 27.7067 426.513 29.52C429.686 31.2767 432.151 33.77 433.908 37C435.664 40.23 436.543 43.9983 436.543 48.305C436.543 49.0983 436.514 49.835 436.458 50.515C436.401 51.195 436.316 51.875 436.203 52.555H399.228V45.075H427.958L425.748 47.115C425.748 43.035 424.813 39.975 422.943 37.935C421.073 35.895 418.466 34.875 415.123 34.875C411.496 34.875 408.606 36.1217 406.453 38.615C404.356 41.1083 403.308 44.7067 403.308 49.41C403.308 54.0567 404.356 57.6267 406.453 60.12C408.606 62.5567 411.638 63.775 415.548 63.775C417.814 63.775 419.798 63.35 421.498 62.5C423.198 61.65 424.444 60.3467 425.238 58.59H435.353C433.936 62.67 431.528 65.9 428.128 68.28C424.784 70.66 420.563 71.85 415.463 71.85Z" fill="#D9D9D9"/>
</svg>
