<svg width="599" height="85" viewBox="0 0 599 85" fill="none" xmlns="http://www.w3.org/2000/svg">
<path d="M26.1952 0C33.5257 7.33333e-05 40.1507 4.87681 44.9052 12.7338C40.2767 20.3828 37.4216 30.8568 37.4215 42.4109C37.4215 53.9645 40.2768 64.4387 44.9052 72.0881C40.1507 79.9451 33.5257 84.8217 26.1952 84.8217C11.7281 84.8217 0 65.8335 0 42.4109C8.8e-05 18.9881 11.7281 0 26.1952 0ZM63.6167 0C70.9471 7.33333e-05 77.572 4.87681 82.3269 12.7338C77.6981 20.3828 74.8433 30.8568 74.8433 42.4109C74.8433 53.9645 77.6981 64.4387 82.3269 72.0881C77.572 79.9451 70.9473 84.8217 63.6167 84.8217C56.2858 84.8217 49.6598 79.9458 44.9052 72.0881C49.5338 64.4387 52.3896 53.9653 52.3896 42.4109C52.3896 30.8566 49.5339 20.3828 44.9052 12.7338C49.6598 4.87645 56.286 0 63.6167 0ZM101.038 0C115.505 0.000146667 127.233 18.9882 127.233 42.4109C127.233 65.8335 115.505 84.8217 101.038 84.8217C93.7075 84.8217 87.0811 79.9458 82.3269 72.0881C86.955 64.4387 89.8113 53.9653 89.8113 42.4109C89.8113 30.8566 86.9557 20.3829 82.3269 12.7338C87.0811 4.87645 93.7075 0 101.038 0Z" fill="#D9D9D9"/>
<path d="M164.247 73.4109V12.2109H190.087C194.451 12.2109 198.247 12.9476 201.477 14.4209C204.707 15.8942 207.172 17.9626 208.872 20.6259C210.629 23.2892 211.507 26.4059 211.507 29.9759C211.507 33.4892 210.629 36.5776 208.872 39.2409C207.172 41.9042 204.707 43.9726 201.477 45.4459C198.247 46.9192 194.451 47.6559 190.087 47.6559H172.917V39.2409H189.747C193.317 39.2409 196.037 38.4192 197.907 36.7759C199.834 35.1326 200.797 32.8659 200.797 29.9759C200.797 27.0859 199.862 24.8759 197.992 23.3459C196.122 21.7592 193.374 20.9659 189.747 20.9659H175.297V73.4109H164.247ZM199.267 73.4109L171.982 42.1309H184.392L214.567 73.4109H199.267ZM220.626 73.4109V30.0609H231.336V73.4109H220.626ZM220.116 22.9209V11.1059H231.761V22.9209H220.116ZM242.706 73.4109V30.0609H253.161V40.2609H253.416V73.4109H242.706ZM273.136 73.4109V46.0409C273.136 43.3776 272.456 41.3659 271.096 40.0059C269.736 38.6459 267.752 37.9659 265.146 37.9659C262.879 37.9659 260.839 38.4759 259.026 39.4959C257.269 40.5159 255.881 41.9326 254.861 43.7459C253.897 45.5592 253.416 47.6559 253.416 50.0359L252.311 39.6659C253.784 36.4926 255.937 33.9709 258.771 32.1009C261.604 30.1742 265.004 29.2109 268.971 29.2109C273.674 29.2109 277.329 30.5426 279.936 33.2059C282.599 35.8692 283.931 39.4109 283.931 43.8309V73.4109H273.136ZM325.692 73.4109V63.6359L326.542 63.8059C325.805 66.9792 324.02 69.5292 321.187 71.4559C318.353 73.3259 314.982 74.2609 311.072 74.2609C307.105 74.2609 303.648 73.3542 300.702 71.5409C297.812 69.6709 295.573 67.0642 293.987 63.7209C292.4 60.3776 291.607 56.4392 291.607 51.9059C291.607 47.3159 292.428 43.3209 294.072 39.9209C295.715 36.5209 298.01 33.8859 300.957 32.0159C303.96 30.1459 307.445 29.2109 311.412 29.2109C315.492 29.2109 318.863 30.2026 321.527 32.1859C324.19 34.1126 325.833 36.8042 326.457 40.2609L325.352 40.3459V12.2109H336.147V73.4109H325.692ZM314.217 65.5059C317.673 65.5059 320.422 64.3159 322.462 61.9359C324.558 59.4992 325.607 56.0992 325.607 51.7359C325.607 47.3726 324.558 44.0009 322.462 41.6209C320.365 39.2409 317.588 38.0509 314.132 38.0509C310.732 38.0509 307.983 39.2692 305.887 41.7059C303.79 44.0859 302.742 47.4576 302.742 51.8209C302.742 56.1842 303.79 59.5559 305.887 61.9359C307.983 64.3159 310.76 65.5059 314.217 65.5059ZM367.01 74.2609C362.42 74.2609 358.396 73.2976 354.94 71.3709C351.54 69.4442 348.876 66.7809 346.95 63.3809C345.08 59.9809 344.145 56.0709 344.145 51.6509C344.145 47.2309 345.08 43.3492 346.95 40.0059C348.876 36.6059 351.54 33.9709 354.94 32.1009C358.34 30.1742 362.306 29.2109 366.84 29.2109C371.146 29.2109 374.886 30.1176 378.06 31.9309C381.233 33.6876 383.698 36.1809 385.455 39.4109C387.211 42.6409 388.09 46.4092 388.09 50.7159C388.09 51.5092 388.061 52.2459 388.005 52.9259C387.948 53.6059 387.863 54.2859 387.75 54.9659H350.775V47.4859H379.505L377.295 49.5259C377.295 45.4459 376.36 42.3859 374.49 40.3459C372.62 38.3059 370.013 37.2859 366.67 37.2859C363.043 37.2859 360.153 38.5326 358 41.0259C355.903 43.5192 354.855 47.1176 354.855 51.8209C354.855 56.4676 355.903 60.0376 358 62.5309C360.153 64.9676 363.185 66.1859 367.095 66.1859C369.361 66.1859 371.345 65.7609 373.045 64.9109C374.745 64.0609 375.991 62.7576 376.785 61.0009H386.9C385.483 65.0809 383.075 68.3109 379.675 70.6909C376.331 73.0709 372.11 74.2609 367.01 74.2609ZM423.395 74.2609C419.032 74.2609 415.008 73.4959 411.325 71.9659C407.698 70.3792 404.525 68.1692 401.805 65.3359C399.085 62.5026 396.988 59.1592 395.515 55.3059C394.042 51.4526 393.305 47.2309 393.305 42.6409C393.305 38.0509 394.042 33.8576 395.515 30.0609C396.988 26.2642 399.057 22.9776 401.72 20.2009C404.44 17.3676 407.613 15.1859 411.24 13.6559C414.923 12.1259 418.975 11.3609 423.395 11.3609C428.268 11.3609 432.66 12.3242 436.57 14.2509C440.48 16.1776 443.682 18.8976 446.175 22.4109C448.725 25.8676 450.283 29.9476 450.85 34.6509H439.97C439.29 30.0609 437.448 26.5476 434.445 24.1109C431.442 21.6176 427.787 20.3709 423.48 20.3709C419.683 20.3709 416.368 21.2776 413.535 23.0909C410.702 24.9042 408.492 27.4826 406.905 30.8259C405.318 34.1126 404.525 38.0226 404.525 42.5559C404.525 47.2026 405.318 51.2259 406.905 54.6259C408.492 57.9692 410.73 60.5759 413.62 62.4459C416.51 64.3159 419.825 65.2509 423.565 65.2509C427.758 65.2509 431.357 64.0326 434.36 61.5959C437.363 59.1026 439.262 55.5892 440.055 51.0559H451.02C450.34 55.7026 448.725 59.7826 446.175 63.2959C443.682 66.8092 440.48 69.5292 436.57 71.4559C432.66 73.3259 428.268 74.2609 423.395 74.2609ZM459.356 73.4109V12.2109H470.066V73.4109H459.356ZM489.786 73.4109V46.0409C489.786 43.3776 489.106 41.3659 487.746 40.0059C486.386 38.6459 484.403 37.9659 481.796 37.9659C479.529 37.9659 477.489 38.4759 475.676 39.4959C473.919 40.5159 472.531 41.9326 471.511 43.7459C470.548 45.5592 470.066 47.6559 470.066 50.0359L468.961 39.6659C470.434 36.4926 472.588 33.9709 475.421 32.1009C478.254 30.1742 481.654 29.2109 485.621 29.2109C490.324 29.2109 493.979 30.5426 496.586 33.2059C499.249 35.8692 500.581 39.4109 500.581 43.8309V73.4109H489.786ZM511.07 73.4109V30.0609H521.78V73.4109H511.07ZM510.56 22.9209V11.1059H522.205V22.9209H510.56ZM533.15 73.4109V12.2109H543.86V73.4109H533.15ZM574.695 74.2609C570.105 74.2609 566.082 73.2976 562.625 71.3709C559.225 69.4442 556.562 66.7809 554.635 63.3809C552.765 59.9809 551.83 56.0709 551.83 51.6509C551.83 47.2309 552.765 43.3492 554.635 40.0059C556.562 36.6059 559.225 33.9709 562.625 32.1009C566.025 30.1742 569.992 29.2109 574.525 29.2109C578.832 29.2109 582.572 30.1176 585.745 31.9309C588.918 33.6876 591.383 36.1809 593.14 39.4109C594.897 42.6409 595.775 46.4092 595.775 50.7159C595.775 51.5092 595.747 52.2459 595.69 52.9259C595.633 53.6059 595.548 54.2859 595.435 54.9659H558.46V47.4859H587.19L584.98 49.5259C584.98 45.4459 584.045 42.3859 582.175 40.3459C580.305 38.3059 577.698 37.2859 574.355 37.2859C570.728 37.2859 567.838 38.5326 565.685 41.0259C563.588 43.5192 562.54 47.1176 562.54 51.8209C562.54 56.4676 563.588 60.0376 565.685 62.5309C567.838 64.9676 570.87 66.1859 574.78 66.1859C577.047 66.1859 579.03 65.7609 580.73 64.9109C582.43 64.0609 583.677 62.7576 584.47 61.0009H594.585C593.168 65.0809 590.76 68.3109 587.36 70.6909C584.017 73.0709 579.795 74.2609 574.695 74.2609Z" fill="#D9D9D9"/>
</svg>
