<svg width="59" height="40" viewBox="0 0 59 40" fill="none" xmlns="http://www.w3.org/2000/svg">
<path d="M12.1475 0C15.5466 0.000178419 18.6185 2.26191 20.8232 5.90527C18.677 9.45224 17.3535 14.3093 17.3535 19.667C17.3535 25.0243 18.6773 29.8808 20.8232 33.4277C18.6185 37.0715 15.5469 39.3338 12.1475 39.334C5.43883 39.334 0 30.5286 0 19.667C2.60948e-06 8.8054 5.43883 0 12.1475 0ZM29.5 0C32.899 0 35.971 2.26141 38.1758 5.9043C36.0293 9.45133 34.7061 14.3089 34.7061 19.667C34.7061 25.0247 36.0295 29.8817 38.1758 33.4287C35.971 37.072 32.8992 39.334 29.5 39.334C26.1005 39.3338 23.028 37.0718 20.8232 33.4277C22.9694 29.8808 24.2939 25.0245 24.2939 19.667C24.2939 14.3091 22.9696 9.45228 20.8232 5.90527C23.028 2.26165 26.1007 0.000169234 29.5 0ZM46.8525 0C53.5612 0 59 8.8054 59 19.667C59 30.5286 53.5612 39.334 46.8525 39.334C43.4532 39.3338 40.3805 37.0723 38.1758 33.4287C40.3223 29.8817 41.6475 25.0251 41.6475 19.667C41.6475 14.3085 40.3225 9.45139 38.1758 5.9043C40.3805 2.26109 43.4534 0.000156434 46.8525 0Z" fill="#D9D9D9"/>
</svg>
